<svg xmlns="http://www.w3.org/2000/svg" width="960" height="342" viewBox="0 0 960 342"><line x1="36" y1="158" x2="936" y2="158" stroke="#222222" stroke-width="1.2"/><line x1="486" y1="8" x2="486" y2="308" stroke="#222222" stroke-width="1.2"/><line x1="126" y1="154" x2="126" y2="162" stroke="#222222" stroke-width="1"/><text x="126" y="172" text-anchor="middle" font-size="11" fill="#5c5c5c" font-family="var(--font-text), sans-serif">-8</text><line x1="306" y1="154" x2="306" y2="162" stroke="#222222" stroke-width="1"/><text x="306" y="172" text-anchor="middle" font-size="11" fill="#5c5c5c" font-family="var(--font-text), sans-serif">-4</text><line x1="486" y1="154" x2="486" y2="162" stroke="#222222" stroke-width="1"/><text x="486" y="172" text-anchor="middle" font-size="11" fill="#5c5c5c" font-family="var(--font-text), sans-serif">0</text><line x1="666" y1="154" x2="666" y2="162" stroke="#222222" stroke-width="1"/><text x="666" y="172" text-anchor="middle" font-size="11" fill="#5c5c5c" font-family="var(--font-text), sans-serif">4</text><line x1="846" y1="154" x2="846" y2="162" stroke="#222222" stroke-width="1"/><text x="846" y="172" text-anchor="middle" font-size="11" fill="#5c5c5c" font-family="var(--font-text), sans-serif">8</text><line x1="482" y1="261.44827586206895" x2="490" y2="261.44827586206895" stroke="#222222" stroke-width="1"/><text x="476" y="265.44827586206895" text-anchor="end" font-size="11" fill="#5c5c5c" font-family="var(--font-text), sans-serif">-1.6</text><line x1="482" y1="209.72413793103448" x2="490" y2="209.72413793103448" stroke="#222222" stroke-width="1"/><text x="476" y="213.72413793103448" text-anchor="end" font-size="11" fill="#5c5c5c" font-family="var(--font-text), sans-serif">-0.8</text><line x1="482" y1="158" x2="490" y2="158" stroke="#222222" stroke-width="1"/><text x="476" y="162" text-anchor="end" font-size="11" fill="#5c5c5c" font-family="var(--font-text), sans-serif">0</text><line x1="482" y1="106.27586206896547" x2="490" y2="106.27586206896547" stroke="#222222" stroke-width="1"/><text x="476" y="110.27586206896547" text-anchor="end" font-size="11" fill="#5c5c5c" font-family="var(--font-text), sans-serif">0.8</text><line x1="482" y1="54.55172413793102" x2="490" y2="54.55172413793102" stroke="#222222" stroke-width="1"/><text x="476" y="58.55172413793102" text-anchor="end" font-size="11" fill="#5c5c5c" font-family="var(--font-text), sans-serif">1.6</text><text x="486" y="322" text-anchor="middle" font-size="12" fill="#222222" font-family="var(--font-text), sans-serif">x</text><text x="22" y="158" text-anchor="middle" font-size="12" fill="#222222" font-family="var(--font-text), sans-serif" transform="rotate(-90 22 158)">y</text><path d="M36,127.41909522667325 L38.25563909774439,135.46549850566592 L40.5112781954887,128.73084327299952 L42.76691729323309,113.56929373336183 L45.0225563909774,103.75819568615077 L47.27819548872179,108.02007971645412 L49.533834586466185,122.4960518331551 L51.78947368421049,134.5034519350505 L54.045112781954884,133.77141262347496 L56.30075187969928,121.15504772459323 L58.556390977443584,107.55712978118507 L60.81203007518798,104.45451768818907 L63.06766917293237,114.33929803091303 L65.32330827067668,128.95890519698403 L67.57894736842107,136.39348923835067 L69.83458646616538,130.79643754865356 L72.09022556390977,116.86620210718243 L74.34586466165416,105.78108080948476 L76.60150375939847,106.23184674322872 L78.85714285714286,117.7714199155206 L81.11278195488717,131.468282322705 L83.36842105263156,136.97668933970257 L85.62406015037595,130.3575988518003 L87.87969924812026,116.78456883693329 L90.13533834586465,106.41872564335648 L92.39097744360905,106.83542302456306 L94.64661654135335,117.65754734068017 L96.90225563909775,131.10437965538463 L99.15789473684214,137.7381287700595 L101.41353383458645,133.10146133683972 L103.66917293233085,120.60908660864442 L105.92481203007516,108.93073857713222 L108.18045112781954,105.95076207822419 L110.43609022556393,113.54004312263203 L112.69172932330824,126.54901739349 L114.94736842105264,136.4327781798334 L117.20300751879695,136.89237619641594 L119.45864661654133,127.80810110972249 L121.71428571428574,115.08210175409872 L123.96992481203004,106.73416361499059 L126.22556390977444,107.8863323175033 L128.4812030075188,117.76254848572324 L130.73684210526312,130.3876667973515 L132.99248120300751,138.3406577672702 L135.24812030075188,137.16309057119486 L137.50375939849624,127.81869496921317 L139.75939849624064,115.9145403378296 L142.01503759398497,108.33214364856221 L144.2706766917293,109.32321479407867 L146.52631578947367,118.26661977643707 L148.78195488721803,130.205721983911 L151.0375939849624,138.6948298877348 L153.29323308270676,139.28578312865773 L155.54887218045113,131.77746116889497 L157.8045112781955,120.14212186997989 L160.06015037593983,110.32255592646862 L162.31578947368422,107.15922088557397 L164.57142857142856,112.04147316425008 L166.8270676691729,122.39029267213786 L169.08270676691728,133.09609921338728 L171.33834586466165,139.08364853627273 L173.593984962406,137.70875017636456 L175.8496240601504,129.87800667381646 L178.10526315789474,119.46617557852781 L180.36090225563908,111.41835621829264 L182.61654135338344,109.48336133001214 L184.87218045112778,114.60779054947713 L187.12781954887217,124.64308389768783 L189.38345864661653,135.39533864017304 L191.6390977443609,142.47441068831185 L193.8947368421053,143.1118155119061 L196.15037593984962,137.20349872019935 L198.406015037594,127.21543735849059 L200.66165413533832,117.07849352206318 L202.91729323308266,110.58646744279594 L205.17293233082705,109.95709012892286 L207.42857142857142,115.09164530145677 L209.68421052631578,123.754471683992 L211.93984962406017,132.53001089239476 L214.1954887218045,138.14323511630798 L216.45112781954887,138.6375106243757 L218.70676691729324,134.00331550650162 L220.96240601503757,126.08299095151622 L223.21804511278194,117.84351557981043 L225.4736842105263,112.31501781209894 L227.72932330827066,111.57539932764072 L229.98496240601506,116.10905168151015 L232.2406015037594,124.71458955834484 L234.49624060150376,134.94509373706376 L236.75187969924812,143.90025802761895 L239.00751879699246,149.1006972845637 L241.26315789473682,149.17795501530074 L243.51879699248119,144.19613383263538 L245.77443609022555,135.5474495190453 L248.03007518796994,125.49149967521993 L250.28571428571428,116.49988436862134 L252.54135338345864,110.60303473324055 L254.796992481203,108.91286108067445 L257.05263157894734,111.42776209228845 L259.3082706766917,117.13994098890296 L261.56390977443607,124.3845761265207 L263.81954887218046,131.3162166831049 L266.0751879699248,136.3798545644375 L268.33082706766913,138.66163689686874 L270.5864661654135,138.04754425218073 L272.8421052631579,135.1731562538854 L275.09774436090225,131.19901938055492 L277.3533834586466,127.4825239500212 L279.609022556391,125.23241485309404 L281.8646616541353,125.22582595749498 L284.12030075187965,127.64466061834307 L286.37593984962405,132.05582651957687 L288.63157894736844,137.52660277868944 L290.8872180451128,142.83939720430342 L293.1428571428571,146.75396479324817 L295.3984962406015,148.26142154527776 L297.65413533834584,146.78194085389043 L299.90977443609023,142.2736836384709 L302.16541353383457,135.24009912751302 L304.42105263157896,126.64204479566712 L306.6766917293233,117.73680319521168 L308.93233082706763,109.87587702697064 L311.187969924812,104.2966821258334 L313.44360902255636,101.94044612342819 L315.69924812030075,103.3211855482634 L317.9548872180451,108.46048714009197 L320.2105263157895,116.89193888758908 L322.4661654135338,127.72915547561922 L324.72180451127815,139.78365558025487 L326.97744360902254,151.71404538200042 L329.2330827067669,162.18617613281236 L331.4887218045113,170.02487102647078 L333.7443609022556,174.34086473084383 L336,174.62103490622835 L338.25563909774434,170.77508834676735 L340.5112781954887,163.13694402545156 L342.76691729323306,152.42362681175578 L345.0225563909774,139.6582107977929 L347.2781954887218,126.06604899007363 L349.5338345864661,112.95514529181526 L351.7894736842105,101.59210852236603 L354.04511278195486,93.08478045953674 L356.30075187969925,88.28148723753941 L358.5563909774436,87.6950771550151 L360.812030075188,91.45763454603573 L363.0676691729323,99.30915811315026 L365.32330827067665,110.62072630957041 L367.57894736842104,124.4499109715224 L369.8345864661654,139.6236174596919 L372.09022556390977,154.841299442629 L374.3458646616541,168.78978470549896 L376.6015037593985,180.25989883096992 L378.85714285714283,188.2547934326625 L381.1127819548872,192.08043062048563 L383.36842105263156,191.41003806460392 L385.6240601503759,186.31645179618891 L387.8796992481203,177.26895890654606 L390.1353383458646,165.09432904722541 L392.390977443609,150.90492390318707 L394.64661654135335,135.9998132544107 L396.90225563909775,121.7474203221721 L399.15789473684214,109.46011097785973 L401.4135338345865,100.27212876285168 L403.6691729323308,95.0322355327134 L405.92481203007515,94.22131431652136 L408.18045112781954,97.90309586687027 L410.4360902255639,105.71325079142042 L412.6917293233082,116.8885981423249 L414.9473684210526,130.33443578047323 L417.203007518797,144.7243494305844 L419.45864661654133,158.62365906607965 L421.71428571428567,170.62523253268375 L423.9699248120301,179.48499047900194 L426.2255639097744,184.2442040761685 L428.4812030075188,184.32669670647726 L430.73684210526307,179.60123274858898 L432.9924812030075,170.40252565042016 L435.2481203007519,157.50813897410288 L437.50375939849624,142.07272962354315 L439.7593984962406,125.52519368290689 L442.0150375939849,109.43792238548119 L444.2706766917293,95.38019679909095 L446.52631578947364,84.76945726886589 L448.781954887218,78.73459389278742 L451.03759398496237,78.00445754599093 L453.2932330827068,82.83255915314021 L455.5488721804511,92.96560659997161 L457.8045112781955,107.65943133599006 L460.0601503759399,125.7413679119224 L462.31578947368416,145.71369995524435 L464.57142857142856,165.8888070761969 L466.82706766917283,184.54352924940252 L469.0827067669173,200.07831852388688 L471.3383458646617,211.16617126042036 L473.593984962406,216.87719433602024 L475.84962406015035,216.76688318993976 L478.1052631578947,210.919572080413 L480.3609022556391,199.94273728278742 L482.6165413533834,184.91248870650873 L484.87218045112775,167.27522694987866 L487.12781954887214,147.90423826985582 L489.3834586466166,128.561152368459 L491.63909774436087,111.732987574807 L493.89473684210526,98.86010916951489 L496.1503759398496,91.01356289175871 L498.406015037594,88.79679296886096 L500.6616541353383,92.29127925668362 L502.9172932330827,101.05106405420275 L505.17293233082705,114.14649792525819 L507.42857142857144,130.25287857980766 L509.6842105263158,147.77543515523578 L511.9398496240602,164.99872558242723 L514.1954887218045,180.2462873187353 L516.4511278195489,192.03551773201696 L518.7067669172932,199.21333257677261 L520.9624060150377,201.06009255622342 L523.218045112782,197.35240029157006 L525.4736842105264,188.37934317528882 L527.7293233082706,174.91120157831512 L529.984962406015,158.1241255062405 L532.2406015037593,139.4883760981413 L534.4962406015038,120.63104447410956 L536.7518796992481,103.18639272194343 L539.0075187969925,88.64791261600533 L541.2631578947369,78.23579601042178 L543.5187969924812,72.79181747483287 L545.7744360902255,72.71082911208751 L548.0300751879699,77.91444785254976 L550.2857142857142,87.8684390596033 L552.5413533834586,101.64116661661643 L554.796992481203,117.99668624483996 L557.0526315789474,135.51296226395692 L559.3082706766917,152.71357025597234 L561.5639097744361,168.20029033760287 L563.8195488721805,180.7742629066926 L566.0751879699249,189.53481553786514 L568.3308270676691,193.94750864703033 L570.5864661654135,193.87612761649262 L572.8421052631579,189.57694327687156 L575.0977443609023,181.65721137174563 L577.3533834586466,171.00322852580513 L579.609022556391,158.68598897458372 L581.8646616541353,145.85434296286007 L584.1203007518798,133.6263858051589 L586.375939849624,122.98955279649132 L588.6315789473684,114.71861446027393 L590.8872180451127,109.3186149092763 L593.1428571428571,106.99701300523145 L595.3984962406015,107.66616985014491 L597.6541353383459,110.97420345195042 L599.9097744360902,116.35942396215381 L602.1654135338346,123.12135542567125 L604.421052631579,130.49996158862405 L606.6766917293234,137.75425510695786 L608.9323308270676,144.23201084964535 L611.187969924812,149.42374853530316 L613.4436090225563,152.99632210120933 L615.6992481203008,154.80409488422993 L617.9548872180451,154.87847607975553 L620.2105263157895,153.39920647081817 L622.4661654135338,150.6528852349823 L624.7218045112783,146.9855522613962 L626.9774436090225,142.75649774697928 L629.2330827067669,138.29979641215726 L631.4887218045112,133.8984269367685 L633.7443609022556,129.77344715247196 L636,126.08788665610425 L638.2556390977444,122.96221786417368 L640.5112781954887,120.495942383516 L642.7669172932331,118.78842535202145 L645.0225563909775,117.9519703813003 L647.2781954887218,118.11142418523485 L649.5338345864661,119.38727396289991 L651.7894736842105,121.86292975634481 L654.0451127819548,125.54108985413276 L656.3007518796993,130.29799109180303 L658.5563909774436,135.8470752462939 L660.812030075188,141.7243424031473 L663.0676691729323,147.3058309507896 L665.3233082706768,151.86308857213658 L667.578947368421,154.65554828898993 L669.8345864661654,155.050363422267 L672.0902255639097,152.6519855090652 L674.3458646616541,147.4174295469735 L676.6015037593985,139.73061614932533 L678.8571428571429,130.41186409269258 L681.1127819548872,120.64714646712812 L683.3684210526316,111.83554276660672 L685.624060150376,105.3704794126327 L687.8796992481203,102.38766858513364 L690.1353383458646,103.52615504525409 L692.390977443609,108.75457101798429 L694.6466165413533,117.30955628486598 L696.9022556390978,127.77626678725602 L699.1578947368421,138.3136289654284 L701.4135338345865,146.9941040445829 L703.6691729323308,152.1962610265741 L705.9248120300751,152.9666345091538 L708.1804511278195,149.26260481187543 L710.4360902255639,142.00484407663896 L712.6917293233082,132.90578930033888 L714.9473684210526,124.09331919180664 L717.203007518797,117.60461903437997 L719.4586466165414,114.86920527209733 L721.7142857142857,116.31780718290685 L723.9699248120301,121.2356927136027 L726.2255639097745,127.92430340931165 L728.4812030075188,134.15384341073192 L730.7368421052631,137.80187274566924 L732.9924812030075,137.50481628909566 L735.2481203007518,133.12502268158647 L737.5037593984963,125.87032367973185 L739.7593984962406,117.99419317905196 L742.015037593985,112.13165133783707 L744.2706766917292,110.45226738841805 L746.5263157894736,113.89409803205635 L748.781954887218,121.74601471279291 L751.0375939849624,131.7572560188597 L753.2932330827067,140.78958337528184 L755.5488721804511,145.83667867209758 L757.8045112781955,145.08303572007748 L760.06015037594,138.6227977926168 L762.3157894736843,128.54211394605792 L764.5714285714286,118.2746135902112 L766.827067669173,111.4065352845279 L769.0827067669173,110.33976167900812 L771.3383458646616,115.3201784041214 L773.5939849624061,124.2466807340634 L775.8496240601503,133.40392623637052 L778.1052631578948,138.8979168314278 L780.3609022556391,138.25863507323206 L782.6165413533835,131.54953682767425 L784.8721804511277,121.46920122921227 L787.1278195488721,112.31776839631056 L789.3834586466164,108.18916722534749 L791.6390977443609,111.13204296606531 L793.8947368421052,120.10895938736468 L796.1503759398497,131.2966280114103 L798.406015037594,139.69688794796937 L800.6616541353384,141.40592094767402 L802.9172932330827,135.512199593167 L805.172932330827,124.6770486121905 L807.4285714285713,114.01103720596669 L809.6842105263157,108.67214300890873 L811.9398496240602,111.29508912962535 L814.1954887218045,120.54771000330015 L816.4511278195488,131.64289753161128 L818.7067669172933,138.68296508462345 L820.9624060150376,137.72933912872188 L823.2180451127819,129.0036178848506 L825.4736842105261,116.96084564213547 L827.7293233082706,108.04089832607366 L829.984962406015,107.18384899373211 L832.2406015037595,114.98623208663699 L834.4962406015038,127.16684020975634 L836.7518796992481,136.81298887974722 L839.0075187969925,138.28778238723072 L841.2631578947369,130.6015484742705 L843.5187969924812,118.1925537393208 L845.7744360902257,108.46858886877186 L848.0300751879698,107.39886722939914 L850.2857142857143,115.76049332340847 L852.5413533834586,128.43851680477553 L854.796992481203,137.4249294023035 L857.0526315789473,136.83241021375537 L859.3082706766917,126.79683542584522 L861.563909774436,113.63303097878418 L863.8195488721805,105.90008878395611 L866.0751879699247,108.75899101746268 L868.3308270676692,120.34681158613856 L870.5864661654136,132.7834183271886 L872.8421052631579,137.39963153602298 L875.0977443609022,130.77804957220383 L877.3533834586466,117.37072295032019 L879.609022556391,106.6083791503768 L881.8646616541353,106.26376148145877 L884.1203007518798,116.7059369075476 L886.375939849624,130.35217290911723 L888.6315789473683,137.03521444434423 L890.8872180451128,131.57701698826912 L893.1428571428571,117.91396888285308 L895.3984962406014,106.39099173946428 L897.6541353383457,105.94044217183864 L899.9097744360902,117.01160182562626 L902.1654135338346,130.9168789909957 L904.4210526315791,136.48171545877727 L906.6766917293234,129.0115416793651 L908.9323308270676,114.35662323049377 L911.187969924812,104.43993316466728 L913.4436090225564,107.51641962723357 L915.6992481203007,121.09552413501083 L917.9548872180452,133.7010416183332 L920.2105263157894,134.4300420737593 L922.4661654135339,122.42657142750494 L924.7218045112782,107.96014704057833 L926.9774436090225,103.7117644673016 L929.2330827067668,113.53853503691462 L931.4887218045112,128.7162066041994 L933.7443609022555,135.46592084698977 L936,127.43231754201386" fill="none" stroke="#222222" stroke-width="2"/></svg>